<svg width="256" height="89" viewBox="0 0 256 89" fill="none" xmlns="http://www.w3.org/2000/svg">
<path d="M121.545 31.24L121.395 36.1C120.895 36.92 120.255 37.66 119.475 38.32C118.715 38.96 117.795 39.47 116.715 39.85C115.635 40.23 114.385 40.42 112.965 40.42C110.765 40.4 108.815 39.95 107.115 39.07C105.435 38.17 104.125 36.91 103.185 35.29C102.245 33.65 101.775 31.71 101.775 29.47C101.775 27.27 102.235 25.36 103.155 23.74C104.095 22.1 105.405 20.83 107.085 19.93C108.785 19.03 110.795 18.58 113.115 18.58C114.635 18.58 116.005 18.77 117.225 19.15C118.445 19.51 119.485 19.96 120.345 20.5L120.765 25.03H120.495C120.015 23.19 119.115 21.83 117.795 20.95C116.495 20.05 114.975 19.6 113.235 19.6C111.515 19.6 110.035 20.01 108.795 20.83C107.555 21.63 106.595 22.77 105.915 24.25C105.235 25.71 104.895 27.44 104.895 29.44C104.895 31.42 105.225 33.15 105.885 34.63C106.565 36.11 107.505 37.27 108.705 38.11C109.925 38.93 111.345 39.36 112.965 39.4C114.425 39.4 115.735 39.14 116.895 38.62C118.055 38.1 119.015 37.25 119.775 36.07C120.535 34.87 121.045 33.26 121.305 31.24H121.545ZM129.393 22V40H126.663V22H129.393ZM137.103 38.98L137.313 40H129.333V38.98H137.103ZM135.843 30.52V31.54H129.333V30.52H135.843ZM137.193 22V23.02H129.333V22H137.193ZM138.873 35.29L137.403 40H132.633L133.623 38.98C134.563 38.98 135.343 38.83 135.963 38.53C136.603 38.21 137.133 37.77 137.553 37.21C137.973 36.65 138.313 36.01 138.573 35.29H138.873ZM135.843 31.48V33.49H135.513V33.16C135.513 32.7 135.373 32.32 135.093 32.02C134.833 31.7 134.443 31.54 133.923 31.54V31.48H135.843ZM135.843 28.57V30.58H133.923V30.52C134.443 30.52 134.833 30.36 135.093 30.04C135.373 29.72 135.513 29.34 135.513 28.9V28.57H135.843ZM137.193 22.93V25.39H136.893V25C136.893 24.42 136.723 23.95 136.383 23.59C136.043 23.21 135.573 23.02 134.973 23.02V22.93H137.193ZM137.193 21.52V22.3L133.863 22C134.483 22 135.133 21.95 135.813 21.85C136.493 21.73 136.953 21.62 137.193 21.52ZM126.753 38.08L127.053 40H124.563V39.7C124.563 39.7 124.623 39.7 124.743 39.7C124.883 39.7 124.963 39.7 124.983 39.7C125.463 39.7 125.863 39.54 126.183 39.22C126.503 38.9 126.663 38.52 126.663 38.08H126.753ZM126.753 23.89H126.663C126.663 23.43 126.503 23.05 126.183 22.75C125.863 22.45 125.463 22.3 124.983 22.3C124.963 22.3 124.883 22.3 124.743 22.3C124.623 22.3 124.563 22.3 124.563 22.3V22H127.053L126.753 23.89ZM131.673 19.9C132.053 19.4 132.463 18.9 132.903 18.4C133.363 17.88 133.823 17.39 134.283 16.93C134.763 16.45 135.213 16.01 135.633 15.61C135.953 15.87 136.243 16.16 136.503 16.48C136.763 16.78 136.973 17.12 137.133 17.5C136.573 17.82 135.993 18.14 135.393 18.46C134.813 18.78 134.223 19.08 133.623 19.36C133.043 19.62 132.463 19.87 131.883 20.11L131.673 19.9ZM155.636 21.58C155.636 21.58 155.636 21.63 155.636 21.73C155.636 21.81 155.636 21.85 155.636 21.85L144.146 40H141.026V39.73L151.766 22.96H141.476V21.97H152.336C152.756 21.97 153.196 21.95 153.656 21.91C154.116 21.87 154.526 21.82 154.886 21.76C155.266 21.7 155.516 21.64 155.636 21.58ZM155.696 39.01L155.486 40H142.976V39.01H155.696ZM157.256 35.29L155.756 40H150.926L151.946 39.01C152.926 38.99 153.726 38.83 154.346 38.53C154.966 38.23 155.486 37.8 155.906 37.24C156.326 36.68 156.676 36.03 156.956 35.29H157.256ZM141.476 22.9H143.696V22.96C143.116 22.98 142.646 23.17 142.286 23.53C141.946 23.89 141.776 24.37 141.776 24.97V25.33H141.476V22.9ZM141.476 21.49C141.636 21.55 141.906 21.62 142.286 21.7C142.666 21.76 143.076 21.82 143.516 21.88C143.976 21.92 144.406 21.95 144.806 21.97L141.476 22.27V21.49ZM164.315 22V40H161.585V22H164.315ZM172.025 38.98L172.235 40H164.255V38.98H172.025ZM170.765 30.52V31.54H164.255V30.52H170.765ZM172.115 22V23.02H164.255V22H172.115ZM173.795 35.29L172.325 40H167.555L168.545 38.98C169.485 38.98 170.265 38.83 170.885 38.53C171.525 38.21 172.055 37.77 172.475 37.21C172.895 36.65 173.235 36.01 173.495 35.29H173.795ZM170.765 31.48V33.49H170.435V33.16C170.435 32.7 170.295 32.32 170.015 32.02C169.755 31.7 169.365 31.54 168.845 31.54V31.48H170.765ZM170.765 28.57V30.58H168.845V30.52C169.365 30.52 169.755 30.36 170.015 30.04C170.295 29.72 170.435 29.34 170.435 28.9V28.57H170.765ZM172.115 22.93V25.39H171.815V25C171.815 24.42 171.645 23.95 171.305 23.59C170.965 23.21 170.495 23.02 169.895 23.02V22.93H172.115ZM172.115 21.52V22.3L168.785 22C169.405 22 170.055 21.95 170.735 21.85C171.415 21.73 171.875 21.62 172.115 21.52ZM161.675 38.08L161.975 40H159.485V39.7C159.485 39.7 159.545 39.7 159.665 39.7C159.805 39.7 159.885 39.7 159.905 39.7C160.385 39.7 160.785 39.54 161.105 39.22C161.425 38.9 161.585 38.52 161.585 38.08H161.675ZM161.675 23.89H161.585C161.585 23.43 161.425 23.05 161.105 22.75C160.785 22.45 160.385 22.3 159.905 22.3C159.885 22.3 159.805 22.3 159.665 22.3C159.545 22.3 159.485 22.3 159.485 22.3V22H161.975L161.675 23.89ZM195.598 21.58L195.868 23.92L188.488 37.42C188.488 37.42 188.408 37.59 188.248 37.93C188.088 38.25 187.928 38.65 187.768 39.13C187.608 39.59 187.498 40.04 187.438 40.48H187.138L186.478 38.38L195.598 21.58ZM177.748 38.02V40H174.688V39.7C174.688 39.7 174.758 39.7 174.898 39.7C175.038 39.7 175.108 39.7 175.108 39.7C175.628 39.7 176.078 39.56 176.458 39.28C176.838 38.98 177.058 38.56 177.118 38.02H177.748ZM178.768 38.47C178.748 38.73 178.818 39 178.978 39.28C179.138 39.56 179.428 39.71 179.848 39.73H180.268V40H178.528L178.588 38.47H178.768ZM179.458 21.58H179.758L180.478 23.74L178.618 40H176.878L179.458 21.58ZM179.758 21.58L188.158 36.49L187.138 40.48L179.128 26.08L179.758 21.58ZM195.868 21.58L198.568 40H195.508L193.708 26.29L195.598 21.58H195.868ZM197.668 38.02H198.268C198.348 38.56 198.578 38.98 198.958 39.28C199.358 39.56 199.808 39.7 200.308 39.7C200.308 39.7 200.378 39.7 200.518 39.7C200.658 39.7 200.728 39.7 200.728 39.7V40H197.668V38.02ZM195.298 38.47H195.508L195.568 40H193.798V39.73H194.248C194.688 39.71 194.978 39.56 195.118 39.28C195.278 39 195.338 38.73 195.298 38.47ZM204.989 22H209.009C209.629 22 210.309 22.06 211.049 22.18C211.789 22.28 212.489 22.48 213.149 22.78C213.809 23.08 214.349 23.53 214.769 24.13C215.209 24.73 215.429 25.52 215.429 26.5C215.429 27.14 215.269 27.73 214.949 28.27C214.629 28.79 214.219 29.22 213.719 29.56C213.219 29.88 212.689 30.1 212.129 30.22C213.069 30.3 213.909 30.56 214.649 31C215.389 31.42 215.969 31.97 216.389 32.65C216.829 33.33 217.049 34.09 217.049 34.93C217.049 35.89 216.849 36.7 216.449 37.36C216.049 38 215.509 38.52 214.829 38.92C214.149 39.3 213.399 39.58 212.579 39.76C211.759 39.92 210.939 40 210.119 40H206.759C206.759 40 206.759 39.92 206.759 39.76C206.779 39.58 206.789 39.41 206.789 39.25C206.789 39.09 206.789 39.01 206.789 39.01H209.669C210.489 39.01 211.219 38.87 211.859 38.59C212.519 38.29 213.039 37.83 213.419 37.21C213.819 36.59 214.019 35.8 214.019 34.84C214.019 33.96 213.839 33.24 213.479 32.68C213.139 32.1 212.679 31.66 212.099 31.36C211.519 31.04 210.869 30.82 210.149 30.7C209.429 30.56 208.689 30.49 207.929 30.49V30.19C208.449 30.19 208.979 30.15 209.519 30.07C210.059 29.97 210.549 29.79 210.989 29.53C211.449 29.27 211.819 28.91 212.099 28.45C212.399 27.97 212.549 27.35 212.549 26.59C212.549 25.31 212.199 24.39 211.499 23.83C210.799 23.27 209.859 22.99 208.679 22.99H205.259C205.259 22.97 205.229 22.88 205.169 22.72C205.129 22.56 205.089 22.4 205.049 22.24C205.009 22.08 204.989 22 204.989 22ZM207.029 22V40H204.359V22H207.029ZM204.449 38.08V40H202.259V39.7C202.259 39.7 202.309 39.7 202.409 39.7C202.529 39.7 202.589 39.7 202.589 39.7C203.109 39.7 203.529 39.54 203.849 39.22C204.169 38.9 204.339 38.52 204.359 38.08H204.449ZM204.449 23.92H204.359C204.339 23.44 204.169 23.05 203.849 22.75C203.529 22.45 203.109 22.3 202.589 22.3C202.589 22.3 202.529 22.3 202.409 22.3C202.309 22.3 202.259 22.3 202.259 22.3V22H204.449V23.92ZM224.161 22H227.821C228.721 22 229.551 22.1 230.311 22.3C231.071 22.5 231.731 22.81 232.291 23.23C232.851 23.63 233.281 24.14 233.581 24.76C233.901 25.36 234.061 26.07 234.061 26.89C234.061 27.67 233.881 28.42 233.521 29.14C233.161 29.84 232.641 30.43 231.961 30.91C231.281 31.39 230.481 31.69 229.561 31.81C229.981 31.95 230.431 32.27 230.911 32.77C231.391 33.27 231.781 33.75 232.081 34.21C232.121 34.25 232.261 34.45 232.501 34.81C232.741 35.15 233.041 35.57 233.401 36.07C233.781 36.55 234.161 37.03 234.541 37.51C234.961 37.99 235.331 38.39 235.651 38.71C235.991 39.03 236.351 39.28 236.731 39.46C237.111 39.62 237.551 39.7 238.051 39.7V40H236.611C235.511 40 234.601 39.88 233.881 39.64C233.161 39.4 232.561 39.07 232.081 38.65C231.601 38.23 231.181 37.77 230.821 37.27C230.701 37.13 230.511 36.86 230.251 36.46C229.991 36.06 229.711 35.64 229.411 35.2C229.131 34.74 228.871 34.32 228.631 33.94C228.391 33.56 228.241 33.31 228.181 33.19C227.821 32.63 227.411 32.17 226.951 31.81C226.511 31.43 226.051 31.24 225.571 31.24V30.94C225.571 30.94 225.701 30.95 225.961 30.97C226.221 30.97 226.551 30.96 226.951 30.94C227.471 30.92 227.981 30.87 228.481 30.79C229.001 30.69 229.481 30.45 229.921 30.07C230.361 29.67 230.701 29.05 230.941 28.21C231.001 28.03 231.051 27.81 231.091 27.55C231.131 27.27 231.141 26.97 231.121 26.65C231.081 26.03 230.961 25.5 230.761 25.06C230.561 24.62 230.281 24.26 229.921 23.98C229.581 23.68 229.191 23.46 228.751 23.32C228.331 23.16 227.871 23.07 227.371 23.05C226.631 23.03 225.971 23.03 225.391 23.05C224.831 23.05 224.521 23.04 224.461 23.02C224.461 23.02 224.431 22.94 224.371 22.78C224.331 22.6 224.281 22.43 224.221 22.27C224.181 22.09 224.161 22 224.161 22ZM224.521 22V40H221.791V22H224.521ZM221.881 38.08L222.151 40H219.721V39.7C219.741 39.7 219.811 39.7 219.931 39.7C220.051 39.7 220.121 39.7 220.141 39.7C220.601 39.7 220.991 39.54 221.311 39.22C221.631 38.9 221.801 38.52 221.821 38.08H221.881ZM221.881 23.89H221.821C221.801 23.43 221.631 23.05 221.311 22.75C220.991 22.45 220.601 22.3 220.141 22.3C220.121 22.3 220.051 22.3 219.931 22.3C219.811 22.3 219.741 22.3 219.721 22.3V22H222.151L221.881 23.89ZM224.431 38.08H224.521C224.521 38.54 224.681 38.93 225.001 39.25C225.341 39.55 225.741 39.7 226.201 39.7C226.201 39.7 226.251 39.7 226.351 39.7C226.471 39.7 226.541 39.7 226.561 39.7L226.591 40H224.131L224.431 38.08ZM243.592 22V40H240.862V22H243.592ZM251.302 38.98L251.512 40H243.532V38.98H251.302ZM250.042 30.52V31.54H243.532V30.52H250.042ZM251.392 22V23.02H243.532V22H251.392ZM253.072 35.29L251.602 40H246.832L247.822 38.98C248.762 38.98 249.542 38.83 250.162 38.53C250.802 38.21 251.332 37.77 251.752 37.21C252.172 36.65 252.512 36.01 252.772 35.29H253.072ZM250.042 31.48V33.49H249.712V33.16C249.712 32.7 249.572 32.32 249.292 32.02C249.032 31.7 248.642 31.54 248.122 31.54V31.48H250.042ZM250.042 28.57V30.58H248.122V30.52C248.642 30.52 249.032 30.36 249.292 30.04C249.572 29.72 249.712 29.34 249.712 28.9V28.57H250.042ZM251.392 22.93V25.39H251.092V25C251.092 24.42 250.922 23.95 250.582 23.59C250.242 23.21 249.772 23.02 249.172 23.02V22.93H251.392ZM251.392 21.52V22.3L248.062 22C248.682 22 249.332 21.95 250.012 21.85C250.692 21.73 251.152 21.62 251.392 21.52ZM240.952 38.08L241.252 40H238.762V39.7C238.762 39.7 238.822 39.7 238.942 39.7C239.082 39.7 239.162 39.7 239.182 39.7C239.662 39.7 240.062 39.54 240.382 39.22C240.702 38.9 240.862 38.52 240.862 38.08H240.952ZM240.952 23.89H240.862C240.862 23.43 240.702 23.05 240.382 22.75C240.062 22.45 239.662 22.3 239.182 22.3C239.162 22.3 239.082 22.3 238.942 22.3C238.822 22.3 238.762 22.3 238.762 22.3V22H241.252L240.952 23.89Z" fill="white"/>
<path d="M116.487 51.5V69H114.162V51.5H116.487ZM123.187 68.125L123.387 69H116.412V68.125H123.187ZM124.812 64.6L123.462 69H119.062L119.962 68.125C120.828 68.125 121.553 67.9833 122.137 67.7C122.72 67.4 123.203 66.9833 123.587 66.45C123.97 65.9167 124.295 65.3 124.562 64.6H124.812ZM114.237 67.175V69H112.237V68.75C112.237 68.75 112.287 68.75 112.387 68.75C112.503 68.75 112.562 68.75 112.562 68.75C112.995 68.75 113.362 68.6 113.662 68.3C113.978 67.9833 114.145 67.6083 114.162 67.175H114.237ZM114.237 53.325H114.162C114.145 52.8917 113.978 52.525 113.662 52.225C113.362 51.9083 112.995 51.75 112.562 51.75C112.562 51.75 112.503 51.75 112.387 51.75C112.287 51.75 112.237 51.75 112.237 51.75V51.5H114.237V53.325ZM116.412 53.325V51.5H118.412V51.75C118.395 51.75 118.337 51.75 118.237 51.75C118.137 51.75 118.087 51.75 118.087 51.75C117.653 51.75 117.278 51.9083 116.962 52.225C116.662 52.525 116.503 52.8917 116.487 53.325H116.412ZM130.614 54V69H128.339V54H130.614ZM137.039 68.15L137.214 69H130.564V68.15H137.039ZM135.989 61.1V61.95H130.564V61.1H135.989ZM137.114 54V54.85H130.564V54H137.114ZM138.514 65.075L137.289 69H133.314L134.139 68.15C134.922 68.15 135.572 68.025 136.089 67.775C136.622 67.5083 137.064 67.1417 137.414 66.675C137.764 66.2083 138.047 65.675 138.264 65.075H138.514ZM135.989 61.9V63.575H135.714V63.3C135.714 62.9167 135.597 62.6 135.364 62.35C135.147 62.0833 134.822 61.95 134.389 61.95V61.9H135.989ZM135.989 59.475V61.15H134.389V61.1C134.822 61.1 135.147 60.9667 135.364 60.7C135.597 60.4333 135.714 60.1167 135.714 59.75V59.475H135.989ZM137.114 54.775V56.825H136.864V56.5C136.864 56.0167 136.722 55.625 136.439 55.325C136.155 55.0083 135.764 54.85 135.264 54.85V54.775H137.114ZM137.114 53.6V54.25L134.339 54C134.855 54 135.397 53.9583 135.964 53.875C136.53 53.775 136.914 53.6833 137.114 53.6ZM128.414 67.4L128.664 69H126.589V68.75C126.589 68.75 126.639 68.75 126.739 68.75C126.855 68.75 126.922 68.75 126.939 68.75C127.339 68.75 127.672 68.6167 127.939 68.35C128.205 68.0833 128.339 67.7667 128.339 67.4H128.414ZM128.414 55.575H128.339C128.339 55.1917 128.205 54.875 127.939 54.625C127.672 54.375 127.339 54.25 126.939 54.25C126.922 54.25 126.855 54.25 126.739 54.25C126.639 54.25 126.589 54.25 126.589 54.25V54H128.664L128.414 55.575ZM163.533 62V66.125C163.149 66.625 162.608 67.125 161.908 67.625C161.208 68.125 160.358 68.5417 159.358 68.875C158.374 69.1917 157.233 69.35 155.933 69.35C154.133 69.3333 152.541 68.95 151.158 68.2C149.791 67.45 148.724 66.4 147.958 65.05C147.191 63.6833 146.808 62.0833 146.808 60.25C146.808 58.4167 147.191 56.8167 147.958 55.45C148.724 54.0833 149.791 53.025 151.158 52.275C152.541 51.525 154.149 51.15 155.983 51.15C156.899 51.15 157.749 51.225 158.533 51.375C159.316 51.5083 160.024 51.7 160.658 51.95C161.291 52.1833 161.849 52.45 162.333 52.75L162.683 56.525H162.458C162.191 55.4917 161.766 54.65 161.183 54C160.599 53.3333 159.883 52.8333 159.033 52.5C158.199 52.1667 157.266 52 156.233 52C154.849 52 153.641 52.3417 152.608 53.025C151.591 53.7083 150.799 54.675 150.233 55.925C149.683 57.1583 149.408 58.6167 149.408 60.3C149.408 61.9333 149.683 63.3667 150.233 64.6C150.783 65.8333 151.549 66.7917 152.533 67.475C153.533 68.1417 154.708 68.4833 156.058 68.5C156.741 68.5 157.399 68.4083 158.033 68.225C158.683 68.0417 159.283 67.7833 159.833 67.45C160.383 67.1167 160.841 66.7083 161.208 66.225L161.233 62C161.233 61.25 160.808 60.875 159.958 60.875H159.558V60.625H165.158V60.875H164.783C163.916 60.875 163.499 61.25 163.533 62ZM170.396 54V63.45C170.396 65.0333 170.788 66.2833 171.571 67.2C172.371 68.1 173.455 68.55 174.821 68.55C176.321 68.55 177.496 68.125 178.346 67.275C179.196 66.4083 179.621 65.225 179.621 63.725V54H180.946V63.675C180.946 65.425 180.388 66.8083 179.271 67.825C178.171 68.8417 176.646 69.35 174.696 69.35C172.613 69.35 170.996 68.85 169.846 67.85C168.713 66.8333 168.146 65.45 168.146 63.7V54H170.396ZM168.196 54V55.325H168.146C168.13 55.0083 168.005 54.75 167.771 54.55C167.555 54.35 167.28 54.25 166.946 54.25C166.946 54.25 166.888 54.25 166.771 54.25C166.655 54.25 166.596 54.25 166.596 54.25V54H168.196ZM171.946 54V54.25C171.946 54.25 171.88 54.25 171.746 54.25C171.63 54.25 171.571 54.25 171.571 54.25C171.255 54.25 170.98 54.35 170.746 54.55C170.513 54.75 170.396 55.0083 170.396 55.325H170.346V54H171.946ZM179.671 54V55.325H179.621C179.621 55.0083 179.505 54.75 179.271 54.55C179.038 54.35 178.763 54.25 178.446 54.25C178.446 54.25 178.38 54.25 178.246 54.25C178.13 54.25 178.071 54.25 178.071 54.25V54H179.671ZM182.471 54V54.25C182.471 54.25 182.413 54.25 182.296 54.25C182.18 54.25 182.121 54.25 182.121 54.25C181.805 54.25 181.53 54.35 181.296 54.55C181.063 54.75 180.946 55.0083 180.946 55.325H180.896V54H182.471ZM188.65 54V69H186.4V54H188.65ZM186.475 67.4V69H184.45V68.75C184.45 68.75 184.5 68.75 184.6 68.75C184.717 68.75 184.783 68.75 184.8 68.75C185.233 68.75 185.6 68.6167 185.9 68.35C186.217 68.0833 186.383 67.7667 186.4 67.4H186.475ZM188.575 67.4H188.65C188.667 67.7667 188.825 68.0833 189.125 68.35C189.442 68.6167 189.825 68.75 190.275 68.75C190.275 68.75 190.325 68.75 190.425 68.75C190.525 68.75 190.575 68.75 190.575 68.75L190.6 69H188.575V67.4ZM188.575 55.6V54H190.6L190.575 54.25C190.575 54.25 190.525 54.25 190.425 54.25C190.325 54.25 190.275 54.25 190.275 54.25C189.825 54.25 189.442 54.3833 189.125 54.65C188.825 54.9 188.667 55.2167 188.65 55.6H188.575ZM186.475 55.6H186.4C186.383 55.2167 186.217 54.9 185.9 54.65C185.6 54.3833 185.225 54.25 184.775 54.25C184.775 54.25 184.717 54.25 184.6 54.25C184.5 54.25 184.45 54.25 184.45 54.25V54H186.475V55.6ZM196.947 54V69H194.672V54H196.947ZM203.372 68.15L203.547 69H196.897V68.15H203.372ZM204.847 65.075L203.622 69H199.647L200.472 68.15C201.255 68.15 201.905 68.025 202.422 67.775C202.955 67.5083 203.397 67.1417 203.747 66.675C204.097 66.2083 204.38 65.675 204.597 65.075H204.847ZM194.747 67.4L194.997 69H192.922V68.75C192.922 68.75 192.972 68.75 193.072 68.75C193.188 68.75 193.255 68.75 193.272 68.75C193.672 68.75 194.005 68.6167 194.272 68.35C194.538 68.0833 194.672 67.7667 194.672 67.4H194.747ZM196.872 55.6V54H198.697V54.25C198.68 54.25 198.622 54.25 198.522 54.25C198.438 54.25 198.397 54.25 198.397 54.25C197.997 54.25 197.655 54.3833 197.372 54.65C197.088 54.9 196.947 55.2167 196.947 55.6H196.872ZM194.747 55.6H194.672C194.672 55.2167 194.53 54.9 194.247 54.65C193.963 54.3833 193.622 54.25 193.222 54.25C193.222 54.25 193.172 54.25 193.072 54.25C192.972 54.25 192.922 54.25 192.922 54.25V54H194.747V55.6ZM214.309 54C216.009 54 217.468 54.3 218.684 54.9C219.918 55.5 220.859 56.3667 221.509 57.5C222.176 58.6167 222.509 59.95 222.509 61.5C222.509 63.05 222.176 64.3833 221.509 65.5C220.859 66.6167 219.918 67.4833 218.684 68.1C217.468 68.7 216.009 69 214.309 69H208.909L208.859 68.175C210.059 68.175 211.051 68.175 211.834 68.175C212.618 68.175 213.209 68.175 213.609 68.175C214.009 68.175 214.209 68.175 214.209 68.175C216.026 68.175 217.451 67.5833 218.484 66.4C219.534 65.2 220.059 63.5667 220.059 61.5C220.059 59.4333 219.534 57.8083 218.484 56.625C217.451 55.425 216.026 54.825 214.209 54.825C214.209 54.825 214.001 54.825 213.584 54.825C213.184 54.825 212.568 54.825 211.734 54.825C210.901 54.825 209.859 54.825 208.609 54.825V54H214.309ZM209.959 54V69H207.659V54H209.959ZM207.734 67.375V69H205.934V68.75C205.934 68.75 205.984 68.75 206.084 68.75C206.184 68.75 206.243 68.75 206.259 68.75C206.643 68.75 206.968 68.6167 207.234 68.35C207.518 68.0667 207.659 67.7417 207.659 67.375H207.734ZM207.709 55.6H207.659C207.643 55.2167 207.493 54.9 207.209 54.65C206.943 54.3833 206.618 54.25 206.234 54.25C206.234 54.25 206.184 54.25 206.084 54.25C205.984 54.25 205.934 54.25 205.934 54.25V54H207.709V55.6ZM233.404 53.65C234.637 53.65 235.77 53.8417 236.804 54.225C237.854 54.5917 238.762 55.125 239.529 55.825C240.312 56.5083 240.92 57.3333 241.354 58.3C241.787 59.25 242.004 60.3167 242.004 61.5C242.004 62.6833 241.787 63.7583 241.354 64.725C240.92 65.675 240.312 66.5 239.529 67.2C238.762 67.8833 237.854 68.4167 236.804 68.8C235.77 69.1667 234.637 69.35 233.404 69.35C232.187 69.35 231.062 69.1667 230.029 68.8C228.995 68.4167 228.087 67.8833 227.304 67.2C226.52 66.5 225.912 65.675 225.479 64.725C225.062 63.7583 224.854 62.6833 224.854 61.5C224.854 60.3167 225.062 59.25 225.479 58.3C225.912 57.3333 226.52 56.5083 227.304 55.825C228.087 55.125 228.995 54.5917 230.029 54.225C231.062 53.8417 232.187 53.65 233.404 53.65ZM233.404 68.525C234.57 68.525 235.612 68.2333 236.529 67.65C237.445 67.05 238.162 66.225 238.679 65.175C239.212 64.125 239.479 62.9 239.479 61.5C239.479 60.0833 239.212 58.8583 238.679 57.825C238.162 56.775 237.445 55.9583 236.529 55.375C235.612 54.775 234.57 54.475 233.404 54.475C232.27 54.475 231.245 54.775 230.329 55.375C229.412 55.9583 228.687 56.775 228.154 57.825C227.62 58.8583 227.354 60.0833 227.354 61.5C227.354 62.9 227.62 64.125 228.154 65.175C228.687 66.225 229.412 67.05 230.329 67.65C231.245 68.2333 232.27 68.525 233.404 68.525Z" fill="white"/>
<path d="M20.92 14.0754L19.1213 12.6889L18.3318 12.0804C17.7546 11.6354 16.9368 11.6881 16.4214 12.2033L13.0648 15.5589C12.5414 16.0822 12.4961 16.9157 12.9597 17.4927L13.5561 18.2349L14.9674 19.9911C16.7272 17.8069 18.7245 15.8219 20.92 14.0754Z" fill="white"/>
<path d="M74.2775 20.2841L75.572 18.4738L76.1515 17.6634C76.5639 17.0865 76.4987 16.2959 75.9971 15.7945L72.3852 12.1836C71.9201 11.7186 71.2003 11.6249 70.6316 11.9553L69.6076 12.5503L67.6189 13.7057C70.0999 15.6163 72.3376 17.8272 74.2775 20.2841Z" fill="white"/>
<path d="M14.8194 67.3165L13.5284 69.0727L12.9559 69.8515C12.54 70.4171 12.5892 71.1995 13.0726 71.7087L16.4881 75.306C17.0108 75.8566 17.8696 75.9108 18.4574 75.4303L19.1675 74.8497L20.92 73.417C18.6627 71.6213 16.615 69.5736 14.8194 67.3165Z" fill="white"/>
<path d="M67.857 73.6019L69.7266 74.8497L70.6599 75.4726C71.2108 75.8403 71.9409 75.788 72.4337 75.3454L76.0989 72.0539C76.643 71.5653 76.7381 70.748 76.3206 70.1475L75.6644 69.2035L74.2775 67.2084C72.3999 69.5863 70.2432 71.7339 67.857 73.6019Z" fill="white"/>
<path d="M66.0244 34.6878C67.1719 37.449 67.8054 40.4774 67.8054 43.6538C67.8054 46.8301 67.1719 49.8585 66.0244 52.6197L79.5735 58.1657C81.4042 53.7207 82.414 48.8514 82.414 43.7462C82.414 38.6056 81.3901 33.7041 79.5353 29.2343L66.0244 34.6878Z" fill="white"/>
<path d="M22.8406 52.7121C21.6686 49.9262 21.021 46.8656 21.021 43.6538C21.021 40.4419 21.6686 37.3813 22.8406 34.5954L9.51449 29.1419C7.63527 33.6365 6.59729 38.5702 6.59729 43.7462C6.59729 48.8868 7.6211 53.7883 9.47598 58.2581L22.8406 52.7121Z" fill="white"/>
<path d="M35.5371 22.0106C38.2741 20.8876 41.2713 20.2684 44.4132 20.2684C47.555 20.2684 50.5522 20.8876 53.2893 22.0106L58.9293 8.68858C54.4831 6.85838 49.6123 5.84893 44.5056 5.84893C39.399 5.84893 34.5282 6.85838 30.082 8.68858L35.5371 22.0106Z" fill="white"/>
<path d="M53.3817 65.2587C50.6198 66.4059 47.5904 67.0392 44.4132 67.0392C41.2359 67.0392 38.2066 66.4059 35.4446 65.2587L29.9895 78.7656C34.4606 80.62 39.3636 81.6435 44.5056 81.6435C49.6477 81.6435 54.5506 80.62 59.0217 78.7656L53.3817 65.2587Z" fill="white"/>
<path d="M35.5371 22.0106C38.2741 20.8876 41.2713 20.2684 44.4132 20.2684C47.555 20.2684 50.5522 20.8876 53.2893 22.0106M35.5371 22.0106L30.082 8.68858M35.5371 22.0106C29.8183 24.3571 25.2351 28.9029 22.8406 34.5954M30.082 8.68858C34.5282 6.85838 39.399 5.84893 44.5056 5.84893C49.6123 5.84893 54.4831 6.85838 58.9293 8.68858M30.082 8.68858C26.7656 10.0537 23.6855 11.8754 20.92 14.0754M53.2893 22.0106L58.9293 8.68858M53.2893 22.0106C59.039 24.3698 63.6408 28.9522 66.0244 34.6878M58.9293 8.68858C62.058 9.97645 64.9765 11.6707 67.6189 13.7057M66.0244 34.6878C67.1719 37.449 67.8054 40.4774 67.8054 43.6538C67.8054 46.8301 67.1719 49.8585 66.0244 52.6197M66.0244 34.6878L79.5353 29.2343M79.5353 29.2343C81.3901 33.7041 82.414 38.6056 82.414 43.7462C82.414 48.8514 81.4042 53.7207 79.5735 58.1657M79.5353 29.2343C78.1933 26.0006 76.4164 22.9929 74.2775 20.2841M66.0244 52.6197L79.5735 58.1657M66.0244 52.6197C63.6535 58.3246 59.0883 62.8885 53.3817 65.2587M79.5735 58.1657C78.2271 61.4345 76.4368 64.4737 74.2775 67.2084M53.3817 65.2587C50.6198 66.4059 47.5904 67.0392 44.4132 67.0392C41.2359 67.0392 38.2066 66.4059 35.4446 65.2587M53.3817 65.2587L59.0217 78.7656M59.0217 78.7656C54.5506 80.62 49.6477 81.6435 44.5056 81.6435C39.3636 81.6435 34.4606 80.62 29.9895 78.7656M59.0217 78.7656C62.2097 77.4435 65.178 75.6989 67.857 73.6019M35.4446 65.2587L29.9895 78.7656M35.4446 65.2587C29.7689 62.9014 25.2222 58.3739 22.8406 52.7121M29.9895 78.7656C26.7084 77.4048 23.6598 75.5966 20.92 73.417M22.8406 52.7121C21.6686 49.9262 21.021 46.8656 21.021 43.6538C21.021 40.4419 21.6686 37.3813 22.8406 34.5954M22.8406 52.7121L9.47598 58.2581M9.47598 58.2581C7.6211 53.7883 6.59729 48.8868 6.59729 43.7462C6.59729 38.5702 7.63527 33.6365 9.51449 29.1419M9.47598 58.2581C10.8358 61.5349 12.6422 64.5796 14.8194 67.3165M22.8406 34.5954L9.51449 29.1419M9.51449 29.1419C10.9007 25.8264 12.7447 22.7498 14.9674 19.9911M20.92 14.0754C18.7245 15.8219 16.7272 17.8069 14.9674 19.9911M20.92 14.0754L19.1213 12.6889M14.9674 19.9911L13.5561 18.2349M14.8194 67.3165C16.615 69.5736 18.6627 71.6213 20.92 73.417M14.8194 67.3165L13.5284 69.0727M20.92 73.417L19.1675 74.8497M67.857 73.6019C70.2432 71.734 72.3999 69.5863 74.2775 67.2084M67.857 73.6019L69.7266 74.8497M74.2775 67.2084L75.6644 69.2035M74.2775 20.2841C72.3376 17.8272 70.0999 15.6163 67.6189 13.7057M74.2775 20.2841L75.572 18.4738M67.6189 13.7057L69.6076 12.5503M69.7266 74.8497L70.6599 75.4726C71.2108 75.8403 71.9409 75.788 72.4337 75.3454L76.0989 72.0539C76.643 71.5653 76.738 70.748 76.3206 70.1475L75.6644 69.2035M69.7266 74.8497C66.1904 79.09 56.317 87.6548 45.1125 87.9908C33.9081 88.3268 23.1473 79.3701 19.1675 74.8497M19.1675 74.8497L18.4574 75.4303C17.8696 75.9108 17.0108 75.8566 16.4881 75.306L13.0726 71.7087C12.5892 71.1995 12.54 70.4171 12.9559 69.8515L13.5284 69.0727M13.5284 69.0727C8.49471 66.76 1.71404 57.4116 1.04178 43.7462C0.369509 30.0808 7.953 21.4803 13.5561 18.2349M13.5561 18.2349L12.9597 17.4927C12.4961 16.9157 12.5414 16.0822 13.0648 15.5589L16.4214 12.2033C16.9368 11.6881 17.7546 11.6354 18.3318 12.0804L19.1213 12.6889M19.1213 12.6889C23.3194 8.61985 31.033 1.71382 41.191 1.04175C51.349 0.369684 65.4419 7.96736 69.6076 12.5503M69.6076 12.5503L70.6316 11.9553C71.2003 11.6249 71.9201 11.7186 72.3852 12.1836L75.9971 15.7945C76.4987 16.2959 76.5639 17.0865 76.1515 17.6634L75.572 18.4738M75.572 18.4738C81.5096 21.9196 89.9489 33.4598 87.596 46.4531C85.2431 59.4465 79.6105 66.5672 75.6644 69.2035" stroke="white"/>
</svg>
